<svg xmlns="http://www.w3.org/2000/svg" xmlns:xlink="http://www.w3.org/1999/xlink" viewBox="0 0 258.07 56.84"><defs><style>.cls-1{fill:url(#linear-gradient);}.cls-2{fill:url(#linear-gradient-2);}.cls-3{fill:url(#linear-gradient-3);}.cls-4{fill:url(#linear-gradient-5);}.cls-5{fill:url(#linear-gradient-8);}.cls-6{fill:url(#linear-gradient-9);}.cls-7{fill:url(#linear-gradient-10);}.cls-8{fill:url(#linear-gradient-11);}.cls-9{fill:url(#linear-gradient-12);}.cls-10{fill:url(#linear-gradient-13);}.cls-11{fill:url(#linear-gradient-14);}.cls-12{fill:url(#linear-gradient-15);}.cls-13{fill:#f36e21;}.cls-14{fill:url(#linear-gradient-16);}.cls-15{fill:url(#linear-gradient-17);}.cls-16{fill:url(#linear-gradient-18);}.cls-17{fill:url(#linear-gradient-19);}.cls-18{fill:url(#linear-gradient-20);}</style><linearGradient id="linear-gradient" x1="65.36" y1="28.46" x2="276.42" y2="28.46" gradientUnits="userSpaceOnUse"><stop offset="0" stop-color="#b52025"/><stop offset="0.11" stop-color="#b92325"/><stop offset="0.23" stop-color="#c52c26"/><stop offset="0.34" stop-color="#da3b28"/><stop offset="0.44" stop-color="#f04c2a"/><stop offset="0.57" stop-color="#cc3b25"/><stop offset="0.77" stop-color="#9c241f"/><stop offset="0.92" stop-color="#7f151b"/><stop offset="1" stop-color="#74101a"/></linearGradient><linearGradient id="linear-gradient-2" x1="65.36" y1="33.2" x2="276.42" y2="33.2" xlink:href="#linear-gradient"/><linearGradient id="linear-gradient-3" x1="65.36" y1="28.18" x2="276.42" y2="28.18" xlink:href="#linear-gradient"/><linearGradient id="linear-gradient-5" x1="65.36" y1="32.96" x2="276.42" y2="32.96" xlink:href="#linear-gradient"/><linearGradient id="linear-gradient-8" x1="4.66" y1="36.99" x2="50.57" y2="-2.14" gradientUnits="userSpaceOnUse"><stop offset="0" stop-color="#010101"/><stop offset="0.02" stop-color="#140d08"/><stop offset="0.1" stop-color="#4f3120"/><stop offset="0.18" stop-color="#825134"/><stop offset="0.25" stop-color="#ac6a45"/><stop offset="0.32" stop-color="#cc7e51"/><stop offset="0.39" stop-color="#e38c5b"/><stop offset="0.46" stop-color="#f19560"/><stop offset="0.51" stop-color="#f69862"/><stop offset="0.55" stop-color="#ef945f"/><stop offset="0.61" stop-color="#db8857"/><stop offset="0.68" stop-color="#bb744b"/><stop offset="0.76" stop-color="#8e5839"/><stop offset="0.85" stop-color="#553522"/><stop offset="0.94" stop-color="#100a07"/><stop offset="0.96" stop-color="#010101"/></linearGradient><linearGradient id="linear-gradient-9" x1="29.28" y1="24.07" x2="29.28" y2="7.88" gradientUnits="userSpaceOnUse"><stop offset="0.22" stop-color="#f09f64"/><stop offset="0.31" stop-color="#da905b"/><stop offset="0.5" stop-color="#a16b43"/><stop offset="0.77" stop-color="#462f1e"/><stop offset="0.96" stop-color="#010101"/></linearGradient><linearGradient id="linear-gradient-10" x1="54" y1="11.02" x2="54" y2="3.02" gradientUnits="userSpaceOnUse"><stop offset="0" stop-color="#f09f64"/><stop offset="0.09" stop-color="#e3965f"/><stop offset="0.26" stop-color="#c18050"/><stop offset="0.49" stop-color="#895b39"/><stop offset="0.76" stop-color="#3d291a"/><stop offset="0.96" stop-color="#010101"/></linearGradient><linearGradient id="linear-gradient-11" x1="45.96" y1="16.46" x2="45.96" y2="8.73" xlink:href="#linear-gradient-10"/><linearGradient id="linear-gradient-12" x1="15.81" y1="36.22" x2="42.2" y2="13.73" gradientUnits="userSpaceOnUse"><stop offset="0" stop-color="#262525"/><stop offset="0.05" stop-color="#4a3b30"/><stop offset="0.14" stop-color="#7c5940"/><stop offset="0.22" stop-color="#a6724d"/><stop offset="0.3" stop-color="#c68657"/><stop offset="0.38" stop-color="#dd945e"/><stop offset="0.45" stop-color="#eb9c63"/><stop offset="0.51" stop-color="#f09f64"/><stop offset="0.55" stop-color="#e99a61"/><stop offset="0.61" stop-color="#d58d59"/><stop offset="0.69" stop-color="#b5784c"/><stop offset="0.77" stop-color="#885a39"/><stop offset="0.86" stop-color="#4f3421"/><stop offset="0.95" stop-color="#0a0705"/><stop offset="0.96" stop-color="#010101"/></linearGradient><linearGradient id="linear-gradient-13" x1="18.75" y1="45.87" x2="54.08" y2="15.76" gradientUnits="userSpaceOnUse"><stop offset="0" stop-color="#010101"/><stop offset="0.02" stop-color="#0e0a06"/><stop offset="0.09" stop-color="#49311f"/><stop offset="0.17" stop-color="#7c5234"/><stop offset="0.25" stop-color="#a66e45"/><stop offset="0.32" stop-color="#c68353"/><stop offset="0.39" stop-color="#dd935c"/><stop offset="0.45" stop-color="#eb9c62"/><stop offset="0.51" stop-color="#f09f64"/><stop offset="0.56" stop-color="#e99a61"/><stop offset="0.62" stop-color="#d58d59"/><stop offset="0.7" stop-color="#b5784c"/><stop offset="0.79" stop-color="#885a39"/><stop offset="0.89" stop-color="#4f3421"/><stop offset="0.99" stop-color="#0a0705"/><stop offset="1" stop-color="#010101"/></linearGradient><linearGradient id="linear-gradient-14" x1="9.29" y1="36.19" x2="55.48" y2="24.22" gradientUnits="userSpaceOnUse"><stop offset="0" stop-color="#d62a29"/><stop offset="0.17" stop-color="#da2e2d"/><stop offset="0.35" stop-color="#e63839"/><stop offset="0.44" stop-color="#ef4041"/><stop offset="0.78" stop-color="#d52a2f"/><stop offset="1" stop-color="#ca2027"/></linearGradient><linearGradient id="linear-gradient-15" x1="6.81" y1="23.17" x2="24.42" y2="18.6" gradientUnits="userSpaceOnUse"><stop offset="0" stop-color="#ca2027"/><stop offset="0.22" stop-color="#d52a2f"/><stop offset="0.56" stop-color="#ef4041"/><stop offset="0.65" stop-color="#e63839"/><stop offset="0.83" stop-color="#da2e2d"/><stop offset="1" stop-color="#d62a29"/></linearGradient><linearGradient id="linear-gradient-16" x1="18.54" y1="14.46" x2="47.59" y2="6.93" xlink:href="#linear-gradient-15"/><linearGradient id="linear-gradient-17" x1="13.75" y1="55.95" x2="64.67" y2="12.54" gradientUnits="userSpaceOnUse"><stop offset="0" stop-color="#010101"/><stop offset="0.07" stop-color="#382518"/><stop offset="0.16" stop-color="#6f4a2f"/><stop offset="0.24" stop-color="#9e6842"/><stop offset="0.31" stop-color="#c18051"/><stop offset="0.38" stop-color="#db915b"/><stop offset="0.45" stop-color="#eb9b62"/><stop offset="0.5" stop-color="#f09f64"/><stop offset="0.54" stop-color="#e89a61"/><stop offset="0.59" stop-color="#d38c58"/><stop offset="0.66" stop-color="#b07549"/><stop offset="0.73" stop-color="#7f5435"/><stop offset="0.82" stop-color="#422c1c"/><stop offset="0.89" stop-color="#010101"/></linearGradient><linearGradient id="linear-gradient-18" x1="-2.03" y1="36.02" x2="66.19" y2="18.33" xlink:href="#linear-gradient-14"/><linearGradient id="linear-gradient-19" x1="18.34" y1="10.06" x2="56.15" y2="0.25" gradientUnits="userSpaceOnUse"><stop offset="0" stop-color="#f36e21"/><stop offset="0.31" stop-color="#f37122"/><stop offset="0.52" stop-color="#f47a26"/><stop offset="0.69" stop-color="#f6882c"/><stop offset="0.84" stop-color="#f99d34"/><stop offset="0.99" stop-color="#fdb93f"/><stop offset="1" stop-color="#fdbb40"/></linearGradient><linearGradient id="linear-gradient-20" x1="18.34" y1="10.06" x2="56.15" y2="0.25" xlink:href="#linear-gradient-14"/></defs><title>Asset 2</title><g id="Layer_2" data-name="Layer 2"><g id="Layer_1-2" data-name="Layer 1"><path class="cls-1" d="M70.29,34.21H78a9.64,9.64,0,0,0,.19,1.93,1.82,1.82,0,0,0,1.08,1.27,6.32,6.32,0,0,0,2.13.33l3,.12c.46,0,2.4,0,5.81-.1a9,9,0,0,0,2.91-.39,2.53,2.53,0,0,0,1.55-2.58A2.49,2.49,0,0,0,92.48,32a29.67,29.67,0,0,0-4-.14H81.35q-5.26,0-7.13-.7a5.52,5.52,0,0,1-3.31-3.35,15.57,15.57,0,0,1-.72-5.35q0-5.53,2.11-7.63,1.74-1.77,6.54-2.3,1.91-.21,7.56-.21c5.38,0,8.77.18,10.15.56a5.93,5.93,0,0,1,3.89,2.81,11.49,11.49,0,0,1,1,5.44v1.09H93.8a2.73,2.73,0,0,0-2.12-3,29.22,29.22,0,0,0-3.78-.12q-4.66,0-7.17.25a4,4,0,0,0-2,.53A2.44,2.44,0,0,0,77.94,22a2.38,2.38,0,0,0,1.67,2.55,13.07,13.07,0,0,0,3.19.23h7.35c.5,0,1.79,0,3.88.09a13.36,13.36,0,0,1,5.15.93q3.39,1.74,3.4,8.65,0,6.41-2.85,8.31Q97,44.58,85.93,44.58q-8.49,0-11.12-.68a5.27,5.27,0,0,1-3.63-2.77,12,12,0,0,1-.91-5.24C70.27,35.64,70.27,35.08,70.29,34.21Z"/><path class="cls-2" d="M125.31,44.34V40.4a5.12,5.12,0,0,1-3.39,4,18.42,18.42,0,0,1-5,.44q-6,0-7.67-1.44c-1.21-1.05-1.81-3-1.81-5.77s.6-4.78,1.81-5.82a8.22,8.22,0,0,1,4.56-1.54c.64-.06,2.25-.09,4.82-.09a17.53,17.53,0,0,1,3.71.26A3.63,3.63,0,0,1,125.09,33V30.53a8,8,0,0,0-.21-2.2q-.39-1.23-2.49-1.5c-.3,0-1.3-.07-3-.07s-2.69,0-2.77,0a1.85,1.85,0,0,0-1.81,1.75h-6.67a8.74,8.74,0,0,1,.65-3.26,5.37,5.37,0,0,1,2-2.23,10.84,10.84,0,0,1,4.84-1.35c.88-.08,2.55-.12,5-.12q6.49,0,8.68,1.45a6.32,6.32,0,0,1,2.49,4.58,27.41,27.41,0,0,1,.09,2.91V44.34Zm-6-9.64a18.86,18.86,0,0,0-3.2.16,2.27,2.27,0,0,0-2.06,2.34,2.24,2.24,0,0,0,2,2.38,29.27,29.27,0,0,0,3.82.14,18.56,18.56,0,0,0,3.48-.21,2.17,2.17,0,0,0,1.8-2.36c0-1.29-.79-2.08-2.37-2.36A35.08,35.08,0,0,0,119.31,34.7Z"/><path class="cls-3" d="M140.15,44.34V27.65h-3.58V22.06h3.58v-.72a15.31,15.31,0,0,1,.72-5.43,5.63,5.63,0,0,1,3.73-3.43,18.24,18.24,0,0,1,4.88-.47,36.23,36.23,0,0,1,3.69.25V17.6c-1.2,0-2.07-.06-2.62-.06a4.27,4.27,0,0,0-2.79.69q-1,.84-1,3.18v.65h6.77v5.59H146.8V44.34Z"/><path class="cls-3" d="M160.66,44.34V27.65h-3.58V22.06h3.58v-.72a15.26,15.26,0,0,1,.73-5.43,5.63,5.63,0,0,1,3.72-3.43A18.38,18.38,0,0,1,170,12a36.59,36.59,0,0,1,3.69.25V17.6c-1.2,0-2.07-.06-2.62-.06a4.32,4.32,0,0,0-2.8.69,4.18,4.18,0,0,0-1,3.18v.65h6.77v5.59h-6.77V44.34Z"/><path class="cls-4" d="M178.09,44.34V22.06h6.43v5a17.06,17.06,0,0,1,.69-2.07,5.2,5.2,0,0,1,1.13-1.7q1.78-1.69,5.63-1.7c2.9,0,4.89.83,6,2.48q1.22,1.82,1.22,6.44c0,.25,0,.74,0,1.45h-6.21v-.35a3.67,3.67,0,0,0-1-2.93,4,4,0,0,0-2.59-.69,4.08,4.08,0,0,0-3.92,2,9.14,9.14,0,0,0-.69,4.14V44.34Z"/><path class="cls-2" d="M215.43,21.57a38.82,38.82,0,0,1,7.82.63,5.74,5.74,0,0,1,4.55,3.7,22.58,22.58,0,0,1,.66,6.69c0,4-.24,6.61-.74,7.95q-1.11,3.08-5.63,3.93a44.09,44.09,0,0,1-7,.35q-8.1,0-10.42-2.18a7.3,7.3,0,0,1-1.93-4.4,43.65,43.65,0,0,1-.19-5.16q0-5.58,1-7.67c.83-1.77,2.64-2.92,5.45-3.46A38,38,0,0,1,215.43,21.57Zm0,6.08c-2.45,0-4,.25-4.75.74q-1.39,1-1.4,4.77a18.49,18.49,0,0,0,.13,2.72,3.31,3.31,0,0,0,1.19,2.18c.7.51,2.36.77,5,.77s4.44-.29,5.11-.86,1.17-2.21,1.17-4.63a17.28,17.28,0,0,0-.17-3,3.16,3.16,0,0,0-2.59-2.58A23,23,0,0,0,215.39,27.65Z"/><path class="cls-4" d="M233.44,44.34V22.06h6.5v5.19A7,7,0,0,1,242.16,23c1.24-.94,3.29-1.42,6.16-1.42q5.88,0,8.1,3.17,1.65,2.36,1.65,7.77V44.34h-6.65V32.86c0-2.14-.52-3.54-1.54-4.21a8.23,8.23,0,0,0-4-.68c-2.11,0-3.57.4-4.38,1.19s-1.37,2.61-1.37,5.12V44.34Z"/><path class="cls-5" d="M9.45,43.7a27.3,27.3,0,0,1,.76-16.79A31.9,31.9,0,0,1,29.59,9c8.83-3.09,17.83-2.26,23.74,2.26l-.71-3.64L44.59,2S29.11-1.38,15.21,12.42,2.47,32,3.56,36.78,9.45,43.7,9.45,43.7Z"/><path class="cls-6" d="M21.57,22.57a22.51,22.51,0,0,1,9.89-7.13c6.09-2,11.83-.62,13.8,1.24l-.34-2.12s-1.86-4-5.52-5-12.29-.12-17.83,4.28-7.74,7.86-8.22,9.39,2.58,1.44,3.21,1.2Z"/><polygon class="cls-7" points="54.39 3.66 50.25 6.94 53.33 11.25 57.74 8.14 54.39 3.66"/><polygon class="cls-8" points="49.47 13.66 46.19 9.34 42.45 12.31 45.26 16.68 49.47 13.66"/><path class="cls-9" d="M8.66,28.55l3.18,4.53L43,26.83s3.43-5.25,1.56-6-22.28,3.43-24.83,4S8.66,28.55,8.66,28.55Z"/><path class="cls-10" d="M11.06,38.39s4.06,8.07,13,7.86S38,43.54,44.42,38s8.54-13,8.7-16.35L50.41,17.1S44.89,31.26,38.13,35.84a27.27,27.27,0,0,1-18,4.42A40.57,40.57,0,0,1,11.06,38.39Z"/><path class="cls-11" d="M22.42,21.76,25,25.5l19-3.56A20.35,20.35,0,0,1,30.89,36.41c-11.09,3.85-15.67-2.08-15.67-2.08l-4.16,4.06s5.72,6.77,16.81,4A30.93,30.93,0,0,0,47.76,27.2a26.61,26.61,0,0,0,2.65-10.1Z"/><path class="cls-12" d="M14.13,23.14a34.74,34.74,0,0,1,5.63-6.91l-.37-3.37a33.89,33.89,0,0,0-3.7,3.25c-6.51,6.61-7,11.24-7,12.44L25,25.5l-2.56-3.74Z"/><path class="cls-13" d="M24.54,12.57C31.05,8.72,38.07,9,42.45,12.31l3.74-3s-1.82-3.17-8.74-3.07a31.43,31.43,0,0,0-18.06,6.59l.37,3.37A27.27,27.27,0,0,1,24.54,12.57Z"/><path class="cls-14" d="M24.54,12.57C31.05,8.72,38.07,9,42.45,12.31l3.74-3s-1.82-3.17-8.74-3.07a31.43,31.43,0,0,0-18.06,6.59l.37,3.37A27.27,27.27,0,0,1,24.54,12.57Z"/><path class="cls-15" d="M2.3,42.81c-.88-.57,1.31,3.25,1.81,4.19C9.9,57.94,28.2,60.11,44,51.72,57.91,44.38,66.18,31.59,63.77,21l-2.88-4.76S55,35.18,44.24,40.9,21.17,55.14,2.3,42.81Z"/><path class="cls-16" d="M55.16,16.52c1,8.29-5.06,18.47-15.66,24.92-13,7.89-27.83,7.18-33.16-1.58s.75-22,13.45-29.9L19.1,7.08C3.85,16-3.91,31.93,2,42.71S25.49,55.4,41.31,46.79C55,39.37,62.79,26.59,60.89,16.25Z"/><path class="cls-17" d="M38.28,3.27c9.37,0,12,3.67,12,3.67L54.4,3.67C52.74,1.45,43.74-1.68,33,1.09a46.75,46.75,0,0,0-13.94,6l.27,3.15C25.94,5.89,32.05,3.3,38.28,3.27Z"/><path class="cls-18" d="M38.28,3.27c9.37,0,12,3.67,12,3.67L54.4,3.67C52.74,1.45,43.74-1.67,33,1.09a46.75,46.75,0,0,0-13.94,6l.27,3.15C26.19,5.79,32.08,3.27,38.28,3.27Z"/></g></g></svg>